# xmcd
# 
# Track frame offsets:
#     150
#     14164
#     28332
#     44219
#     58329
#     75765
#     89728
#     104894
#     120249
#     134473
#     148676
#     165572
# 
# Disc length: 2400
# 
# Revision: 0
# Processed by: cddbd v1.5.2PL0 Copyright (c) Steve Scherf et al.
# Submitted via: fre:ac v1.0.31
# 
DISCID=b3095e0c
DTITLE=Fernando Express - Traeume sind fuer alle da
DYEAR=0
DGENRE=
TTITLE0=Traeume sind fuer alle da
TTITLE1=Mein Paradies
TTITLE2=Wolkentaenzer
TTITLE3=Der Wind hat ihre Spur verweht
TTITLE4=Sehnsucht ist ein unsichtbares Wunder
TTITLE5=Das wird unser Sommer
TTITLE6=Du zauberst Sonne
TTITLE7=Flammende Herzen
TTITLE8=Que Sera Sera
TTITLE9=Sehnsucht nach Sansibar
TTITLE10=Tanz auf duennem Eis
TTITLE11=Du bist der Engel meines Lebens
EXTD=
EXTT0=
EXTT1=
EXTT2=
EXTT3=
EXTT4=
EXTT5=
EXTT6=
EXTT7=
EXTT8=
EXTT9=
EXTT10=
EXTT11=
PLAYORDER=
